<svg width="56" height="56" viewBox="0 0 56 56" fill="none" xmlns="http://www.w3.org/2000/svg">
<rect width="56" height="56" rx="28" fill="#22C379"/>
<path fill-rule="evenodd" clip-rule="evenodd" d="M21.3334 14.6667C17.6515 14.6667 14.6667 17.6515 14.6667 21.3334V34.6667C14.6667 38.3486 17.6515 41.3334 21.3334 41.3334H34.6667C38.3486 41.3334 41.3334 38.3486 41.3334 34.6667V21.3334C41.3334 17.6515 38.3486 14.6667 34.6667 14.6667H21.3334ZM38.6667 28V21.3334C38.6667 19.1242 36.8759 17.3334 34.6667 17.3334H21.3334C19.1243 17.3334 17.3334 19.1242 17.3334 21.3334V32H19.255L21.248 28.7615C21.5392 28.2883 22.055 28 22.6106 28H27.147L30.258 21.2594C30.8108 20.0617 32.4941 20.0099 33.1195 21.1714L36.7965 28H38.6667ZM17.3334 34.6667L19.8511 34.6667C20.4067 34.6667 20.9225 34.3784 21.2137 33.9052L23.2067 30.6667H27.8295C28.4535 30.6667 29.0207 30.3038 29.2822 29.7372L31.7842 24.3162L34.7506 29.8253C35.0297 30.3435 35.5707 30.6667 36.1594 30.6667H38.6667V34.6667C38.6667 36.8758 36.8759 38.6667 34.6667 38.6667H21.3334C19.1243 38.6667 17.3334 36.8758 17.3334 34.6667Z" fill="white"/>
</svg>
