<svg width="32" height="32" viewBox="0 0 32 32" fill="none" xmlns="http://www.w3.org/2000/svg">
<path fill-rule="evenodd" clip-rule="evenodd" d="M32 16C32 24.8367 24.8367 32 16 32C7.16327 32 0 24.8367 0 16C0 7.16327 7.16327 0 16 0C24.8367 0 32 7.16327 32 16ZM21.2123 8H10.6668C9.66673 8 8 8.66669 8 10.7595V21.3339C8 22.6672 9.00004 24.0006 10.6668 24.0006H21.2218C23.0344 24.0006 24.0006 22.6672 24.0006 21.2986V10.6668C24.0006 9.66673 23.2631 8 21.2123 8ZM16.0003 20.4449C13.546 20.4449 11.5557 18.4546 11.5557 16.0003C11.5557 13.546 13.546 11.5557 16.0003 11.5557C18.4546 11.5557 20.4449 13.546 20.4449 16.0003C20.4449 18.4546 18.4546 20.4449 16.0003 20.4449ZM21.3339 11.5557C20.8432 11.5557 20.4449 11.1575 20.4449 10.6668C20.4449 10.1761 20.8432 9.77785 21.3339 9.77785C21.8245 9.77785 22.2228 10.1761 22.2228 10.6668C22.2228 11.1575 21.8245 11.5557 21.3339 11.5557ZM14.1136 14.1131C14.6137 13.613 15.292 13.332 15.9993 13.332C16.7066 13.332 17.3849 13.613 17.885 14.1131C18.3851 14.6132 18.6661 15.2915 18.6661 15.9988C18.6661 16.7061 18.3851 17.3844 17.885 17.8845C17.3849 18.3846 16.7066 18.6656 15.9993 18.6656C15.292 18.6656 14.6137 18.3846 14.1136 17.8845C13.6135 17.3844 13.3325 16.7061 13.3325 15.9988C13.3325 15.2915 13.6135 14.6132 14.1136 14.1131Z" fill="currentColor"/>
</svg>
