<svg width="56" height="56" viewBox="0 0 56 56" fill="none" xmlns="http://www.w3.org/2000/svg">
<rect width="56" height="56" rx="28" fill="#22C379"/>
<path fill-rule="evenodd" clip-rule="evenodd" d="M27.9999 18.6667C25.7908 18.6667 23.9999 20.4575 23.9999 22.6667C23.9999 24.8758 25.7908 26.6667 27.9999 26.6667C30.2091 26.6667 31.9999 24.8758 31.9999 22.6667C31.9999 20.4575 30.2091 18.6667 27.9999 18.6667ZM21.3333 22.6667C21.3333 18.9848 24.318 16 27.9999 16C31.6818 16 34.6666 18.9848 34.6666 22.6667C34.6666 26.3486 31.6818 29.3333 27.9999 29.3333C24.318 29.3333 21.3333 26.3486 21.3333 22.6667Z" fill="white"/>
<path fill-rule="evenodd" clip-rule="evenodd" d="M18.6527 37.5253L18.6542 37.5159C18.6558 37.5054 18.6589 37.4865 18.6636 37.4599C18.673 37.4066 18.6888 37.3224 18.7125 37.2117C18.76 36.9899 18.8389 36.6641 18.9611 36.2692C19.207 35.475 19.6205 34.4263 20.2882 33.3877C21.5966 31.3524 23.8781 29.3333 27.9999 29.3333C30.4999 29.3333 32.2898 30.0728 33.5927 31.0619L35.2052 28.9381C33.4323 27.592 31.0745 26.6667 27.9999 26.6667C22.7884 26.6667 19.7366 29.3143 18.045 31.9457C17.2127 33.2403 16.7095 34.525 16.4137 35.4808C16.2651 35.9609 16.1669 36.3642 16.105 36.6529C16.0741 36.7974 16.0521 36.9137 16.0374 36.9972C16.0301 37.0389 16.0245 37.0724 16.0206 37.0972L16.0158 37.1278L16.0143 37.138L16.0138 37.1418L16.0135 37.1434C16.0134 37.1441 16.0133 37.1448 17.3333 37.3333L16.0133 37.1448C15.9092 37.8738 16.4157 38.5491 17.1447 38.6533C17.8725 38.7572 18.5469 38.2524 18.6527 37.5253Z" fill="white"/>
<path d="M40.9807 31.0967C41.4795 31.6383 41.4449 32.4818 40.9032 32.9807L34.1168 39.2314C33.3511 39.9366 32.1725 39.9366 31.4069 39.2314L28.43 36.4895C27.8883 35.9906 27.8537 35.1471 28.3525 34.6055C28.8514 34.0638 29.6949 34.0292 30.2366 34.528L32.7618 36.854L39.0966 31.0193C39.6383 30.5204 40.4818 30.5551 40.9807 31.0967Z" fill="white"/>
</svg>
