<svg width="56" height="56" viewBox="0 0 56 56" fill="none" xmlns="http://www.w3.org/2000/svg">
<rect width="56" height="56" rx="28" fill="#22C379"/>
<path d="M23.9999 20.0001C23.2635 20.0001 22.6666 20.597 22.6666 21.3334C22.6666 22.0698 23.2635 22.6667 23.9999 22.6667H26.6666V30.6667H23.9999C23.2635 30.6667 22.6666 31.2637 22.6666 32.0001C22.6666 32.7365 23.2635 33.3334 23.9999 33.3334H31.9999C32.7363 33.3334 33.3333 32.7365 33.3333 32.0001C33.3333 31.2637 32.7363 30.6667 31.9999 30.6667H29.3333V22.6667H31.9999C32.7363 22.6667 33.3333 22.0698 33.3333 21.3334C33.3333 20.597 32.7363 20.0001 31.9999 20.0001H23.9999Z" fill="white"/>
<path fill-rule="evenodd" clip-rule="evenodd" d="M28.7325 14.8227C28.2537 14.6859 27.7461 14.6859 27.2673 14.8227L19.2673 17.1084C18.1225 17.4355 17.3333 18.4819 17.3333 19.6725V28.6667C17.3333 32.6404 19.3592 35.5662 21.5208 37.5441C23.6727 39.5132 26.0524 40.6361 27.0426 41.0537C27.6577 41.3132 28.3422 41.3132 28.9572 41.0537C29.9474 40.6361 32.3271 39.5132 34.4791 37.5441C36.6407 35.5662 38.6666 32.6404 38.6666 28.6667V19.6725C38.6666 18.4819 37.8773 17.4355 36.7325 17.1084L28.7325 14.8227ZM19.9999 19.6725L27.9999 17.3868L35.9999 19.6725L35.9999 28.6667C35.9999 31.6443 34.5025 33.9082 32.6789 35.5768C30.8997 37.2048 28.9001 38.1765 27.9999 38.563C27.0998 38.1765 25.1001 37.2048 23.321 35.5768C21.4974 33.9082 19.9999 31.6443 19.9999 28.6667L19.9999 19.6725Z" fill="white"/>
</svg>
