<svg width="44" height="19" viewBox="0 0 44 19" fill="none" xmlns="http://www.w3.org/2000/svg">
<path d="M9.5625 0.9375V18H5.44922V0.9375H9.5625ZM14.6953 0.9375V4.11328H0.433594V0.9375H14.6953Z" fill="#777777"/>
<path d="M26.1445 12.2227H30.2461C30.1914 13.4102 29.8711 14.457 29.2852 15.3633C28.6992 16.2695 27.8867 16.9766 26.8477 17.4844C25.8164 17.9844 24.5977 18.2344 23.1914 18.2344C22.0508 18.2344 21.0312 18.043 20.1328 17.6602C19.2422 17.2773 18.4844 16.7266 17.8594 16.0078C17.2422 15.2891 16.7695 14.418 16.4414 13.3945C16.1211 12.3711 15.9609 11.2188 15.9609 9.9375V9.01172C15.9609 7.73047 16.1289 6.57812 16.4648 5.55469C16.8086 4.52344 17.293 3.64844 17.918 2.92969C18.5508 2.20312 19.3086 1.64844 20.1914 1.26562C21.0742 0.882812 22.0547 0.691406 23.1328 0.691406C24.6172 0.691406 25.8711 0.957031 26.8945 1.48828C27.918 2.01953 28.7109 2.75 29.2734 3.67969C29.8359 4.60156 30.168 5.65234 30.2695 6.83203H26.168C26.1523 6.19141 26.043 5.65625 25.8398 5.22656C25.6367 4.78906 25.3164 4.46094 24.8789 4.24219C24.4414 4.02344 23.8594 3.91406 23.1328 3.91406C22.625 3.91406 22.1836 4.00781 21.8086 4.19531C21.4336 4.38281 21.1211 4.67969 20.8711 5.08594C20.6211 5.49219 20.4336 6.01953 20.3086 6.66797C20.1914 7.30859 20.1328 8.08203 20.1328 8.98828V9.9375C20.1328 10.8438 20.1875 11.6172 20.2969 12.2578C20.4062 12.8984 20.582 13.4219 20.8242 13.8281C21.0664 14.2344 21.3789 14.5352 21.7617 14.7305C22.1523 14.918 22.6289 15.0117 23.1914 15.0117C23.8164 15.0117 24.3438 14.9141 24.7734 14.7188C25.2031 14.5156 25.5352 14.2109 25.7695 13.8047C26.0039 13.3906 26.1289 12.8633 26.1445 12.2227ZM31.5117 11.7891V11.543C31.5117 10.6133 31.6445 9.75781 31.9102 8.97656C32.1758 8.1875 32.5664 7.50391 33.082 6.92578C33.5977 6.34766 34.2344 5.89844 34.9922 5.57812C35.75 5.25 36.625 5.08594 37.6172 5.08594C38.6172 5.08594 39.4961 5.25 40.2539 5.57812C41.0195 5.89844 41.6602 6.34766 42.1758 6.92578C42.6914 7.50391 43.082 8.1875 43.3477 8.97656C43.6133 9.75781 43.7461 10.6133 43.7461 11.543V11.7891C43.7461 12.7109 43.6133 13.5664 43.3477 14.3555C43.082 15.1367 42.6914 15.8203 42.1758 16.4062C41.6602 16.9844 41.0234 17.4336 40.2656 17.7539C39.5078 18.0742 38.6328 18.2344 37.6406 18.2344C36.6484 18.2344 35.7695 18.0742 35.0039 17.7539C34.2383 17.4336 33.5977 16.9844 33.082 16.4062C32.5664 15.8203 32.1758 15.1367 31.9102 14.3555C31.6445 13.5664 31.5117 12.7109 31.5117 11.7891ZM35.4609 11.543V11.7891C35.4609 12.2656 35.4961 12.7109 35.5664 13.125C35.6367 13.5391 35.7539 13.9023 35.918 14.2148C36.082 14.5195 36.3047 14.7578 36.5859 14.9297C36.8672 15.1016 37.2188 15.1875 37.6406 15.1875C38.0547 15.1875 38.3984 15.1016 38.6719 14.9297C38.9531 14.7578 39.1758 14.5195 39.3398 14.2148C39.5039 13.9023 39.6211 13.5391 39.6914 13.125C39.7617 12.7109 39.7969 12.2656 39.7969 11.7891V11.543C39.7969 11.082 39.7617 10.6484 39.6914 10.2422C39.6211 9.82812 39.5039 9.46484 39.3398 9.15234C39.1758 8.83203 38.9531 8.58203 38.6719 8.40234C38.3906 8.22266 38.0391 8.13281 37.6172 8.13281C37.2031 8.13281 36.8555 8.22266 36.5742 8.40234C36.3008 8.58203 36.082 8.83203 35.918 9.15234C35.7539 9.46484 35.6367 9.82812 35.5664 10.2422C35.4961 10.6484 35.4609 11.082 35.4609 11.543Z" fill="white"/>
</svg>
