<svg width="112" height="23" viewBox="0 0 112 23" fill="none" xmlns="http://www.w3.org/2000/svg">
<path d="M9.5625 0.9375V18H5.44922V0.9375H9.5625ZM14.6953 0.9375V4.11328H0.433594V0.9375H14.6953ZM19.4648 8.46094V18H15.5156V5.32031H19.207L19.4648 8.46094ZM23.2148 5.22656L23.1445 8.89453C22.9883 8.87891 22.7773 8.85938 22.5117 8.83594C22.2461 8.8125 22.0234 8.80078 21.8438 8.80078C21.3828 8.80078 20.9844 8.85547 20.6484 8.96484C20.3203 9.06641 20.0469 9.22266 19.8281 9.43359C19.6172 9.63672 19.4609 9.89453 19.3594 10.207C19.2656 10.5195 19.2227 10.8828 19.2305 11.2969L18.5156 10.8281C18.5156 9.97656 18.5977 9.20312 18.7617 8.50781C18.9336 7.80469 19.1758 7.19922 19.4883 6.69141C19.8008 6.17578 20.1797 5.78125 20.625 5.50781C21.0703 5.22656 21.5703 5.08594 22.125 5.08594C22.3203 5.08594 22.5117 5.09766 22.6992 5.12109C22.8945 5.14453 23.0664 5.17969 23.2148 5.22656ZM30.8086 14.8125V9.58594C30.8086 9.22656 30.7578 8.91797 30.6562 8.66016C30.5547 8.40234 30.3945 8.20312 30.1758 8.0625C29.957 7.91406 29.6641 7.83984 29.2969 7.83984C29 7.83984 28.7461 7.89062 28.5352 7.99219C28.3242 8.09375 28.1641 8.24609 28.0547 8.44922C27.9453 8.65234 27.8906 8.91016 27.8906 9.22266H23.9414C23.9414 8.63672 24.0703 8.09375 24.3281 7.59375C24.5938 7.08594 24.9688 6.64453 25.4531 6.26953C25.9453 5.89453 26.5312 5.60547 27.2109 5.40234C27.8984 5.19141 28.6641 5.08594 29.5078 5.08594C30.5156 5.08594 31.4141 5.25391 32.2031 5.58984C33 5.92578 33.6289 6.42969 34.0898 7.10156C34.5508 7.76562 34.7812 8.60156 34.7812 9.60938V14.8008C34.7812 15.6289 34.8281 16.2578 34.9219 16.6875C35.0156 17.1094 35.1484 17.4805 35.3203 17.8008V18H31.3594C31.1719 17.6094 31.0312 17.1328 30.9375 16.5703C30.8516 16 30.8086 15.4141 30.8086 14.8125ZM31.2891 10.2539L31.3125 12.3633H29.5664C29.1992 12.3633 28.8867 12.4141 28.6289 12.5156C28.3789 12.6172 28.1758 12.7578 28.0195 12.9375C27.8711 13.1094 27.7617 13.3047 27.6914 13.5234C27.6289 13.7422 27.5977 13.9727 27.5977 14.2148C27.5977 14.4492 27.6523 14.6602 27.7617 14.8477C27.8789 15.0273 28.0352 15.168 28.2305 15.2695C28.4258 15.3711 28.6445 15.4219 28.8867 15.4219C29.3242 15.4219 29.6953 15.3398 30 15.1758C30.3125 15.0039 30.5508 14.7969 30.7148 14.5547C30.8789 14.3125 30.9609 14.0859 30.9609 13.875L31.8281 15.4922C31.6719 15.8047 31.4922 16.1211 31.2891 16.4414C31.0938 16.7617 30.8477 17.0586 30.5508 17.332C30.2617 17.5977 29.9062 17.8164 29.4844 17.9883C29.0625 18.1523 28.5508 18.2344 27.9492 18.2344C27.168 18.2344 26.4492 18.0742 25.793 17.7539C25.1445 17.4336 24.625 16.9883 24.2344 16.418C23.8438 15.8398 23.6484 15.1758 23.6484 14.4258C23.6484 13.7695 23.7656 13.1836 24 12.668C24.2422 12.1523 24.6055 11.7148 25.0898 11.3555C25.5742 10.9961 26.1914 10.7227 26.9414 10.5352C27.6914 10.3477 28.5742 10.2539 29.5898 10.2539H31.2891ZM44.2617 15.0938V0H48.2344V18H44.6719L44.2617 15.0938ZM36.4805 11.8125V11.5664C36.4805 10.6055 36.5859 9.73047 36.7969 8.94141C37.0078 8.14453 37.3203 7.46094 37.7344 6.89062C38.1484 6.3125 38.6641 5.86719 39.2812 5.55469C39.8984 5.24219 40.6094 5.08594 41.4141 5.08594C42.1328 5.08594 42.7617 5.25391 43.3008 5.58984C43.8398 5.91797 44.3008 6.37891 44.6836 6.97266C45.0664 7.56641 45.3789 8.26172 45.6211 9.05859C45.8633 9.84766 46.0469 10.6992 46.1719 11.6133V11.9062C46.0469 12.7656 45.8633 13.5781 45.6211 14.3438C45.3789 15.1016 45.0664 15.7734 44.6836 16.3594C44.3008 16.9453 43.8359 17.4062 43.2891 17.7422C42.75 18.0703 42.1172 18.2344 41.3906 18.2344C40.5859 18.2344 39.875 18.0742 39.2578 17.7539C38.6484 17.4336 38.1367 16.9844 37.7227 16.4062C37.3164 15.8281 37.0078 15.1484 36.7969 14.3672C36.5859 13.5859 36.4805 12.7344 36.4805 11.8125ZM40.4297 11.5664V11.8125C40.4297 12.2891 40.4609 12.7305 40.5234 13.1367C40.5859 13.543 40.6914 13.9023 40.8398 14.2148C40.9961 14.5195 41.1992 14.7578 41.4492 14.9297C41.707 15.1016 42.0234 15.1875 42.3984 15.1875C42.9062 15.1875 43.3242 15.0664 43.6523 14.8242C43.9883 14.582 44.2344 14.2383 44.3906 13.793C44.5547 13.3477 44.625 12.8242 44.6016 12.2227V11.2969C44.6172 10.7812 44.582 10.3281 44.4961 9.9375C44.4102 9.53906 44.2734 9.20703 44.0859 8.94141C43.9062 8.67578 43.6758 8.47656 43.3945 8.34375C43.1211 8.20312 42.7969 8.13281 42.4219 8.13281C42.0547 8.13281 41.7422 8.21875 41.4844 8.39062C41.2344 8.5625 41.0312 8.80469 40.875 9.11719C40.7188 9.42188 40.6055 9.78516 40.5352 10.207C40.4648 10.6211 40.4297 11.0742 40.4297 11.5664ZM54.6445 5.32031V18H50.6836V5.32031H54.6445ZM50.4492 2.05078C50.4492 1.48828 50.6523 1.02734 51.0586 0.667969C51.4648 0.308594 51.9922 0.128906 52.6406 0.128906C53.2891 0.128906 53.8164 0.308594 54.2227 0.667969C54.6289 1.02734 54.832 1.48828 54.832 2.05078C54.832 2.61328 54.6289 3.07422 54.2227 3.43359C53.8164 3.79297 53.2891 3.97266 52.6406 3.97266C51.9922 3.97266 51.4648 3.79297 51.0586 3.43359C50.6523 3.07422 50.4492 2.61328 50.4492 2.05078ZM60.9609 8.02734V18H57.0117V5.32031H60.7148L60.9609 8.02734ZM60.4922 11.2266L59.5664 11.25C59.5664 10.2812 59.6836 9.41797 59.918 8.66016C60.1523 7.89453 60.4844 7.24609 60.9141 6.71484C61.3438 6.18359 61.8555 5.78125 62.4492 5.50781C63.0508 5.22656 63.7188 5.08594 64.4531 5.08594C65.0391 5.08594 65.5742 5.17187 66.0586 5.34375C66.5508 5.51563 66.9727 5.79297 67.3242 6.17578C67.6836 6.55859 67.957 7.06641 68.1445 7.69922C68.3398 8.32422 68.4375 9.09766 68.4375 10.0195V18H64.4648V10.0078C64.4648 9.5 64.3945 9.11328 64.2539 8.84766C64.1133 8.57422 63.9102 8.38672 63.6445 8.28516C63.3789 8.18359 63.0547 8.13281 62.6719 8.13281C62.2656 8.13281 61.9219 8.21094 61.6406 8.36719C61.3594 8.52344 61.1328 8.74219 60.9609 9.02344C60.7969 9.29688 60.6758 9.62109 60.5977 9.99609C60.5273 10.3711 60.4922 10.7812 60.4922 11.2266ZM78.5977 5.32031H82.1836V17.5078C82.1836 18.6797 81.9141 19.6719 81.375 20.4844C80.8359 21.3047 80.082 21.9258 79.1133 22.3477C78.1523 22.7773 77.0273 22.9922 75.7383 22.9922C75.168 22.9922 74.5859 22.918 73.9922 22.7695C73.3984 22.6289 72.8438 22.418 72.3281 22.1367C71.8125 21.8555 71.3789 21.5078 71.0273 21.0938L72.6797 18.7734C73 19.1328 73.4023 19.4375 73.8867 19.6875C74.3711 19.9453 74.9414 20.0742 75.5977 20.0742C76.168 20.0742 76.6445 19.9727 77.0273 19.7695C77.418 19.5664 77.7148 19.2695 77.918 18.8789C78.1211 18.4961 78.2227 18.0312 78.2227 17.4844V8.32031L78.5977 5.32031ZM70.1719 11.8125V11.5664C70.1719 10.6055 70.2891 9.73047 70.5234 8.94141C70.7656 8.14453 71.1094 7.46094 71.5547 6.89062C72.0078 6.3125 72.5547 5.86719 73.1953 5.55469C73.8359 5.24219 74.5586 5.08594 75.3633 5.08594C76.2305 5.08594 76.9414 5.25391 77.4961 5.58984C78.0586 5.91797 78.5078 6.37891 78.8438 6.97266C79.1875 7.56641 79.4531 8.26172 79.6406 9.05859C79.8359 9.84766 80 10.6992 80.1328 11.6133V11.9062C80 12.7656 79.8164 13.5781 79.582 14.3438C79.3555 15.1016 79.0586 15.7734 78.6914 16.3594C78.3242 16.9453 77.8633 17.4062 77.3086 17.7422C76.7617 18.0703 76.1055 18.2344 75.3398 18.2344C74.543 18.2344 73.8242 18.0742 73.1836 17.7539C72.5508 17.4336 72.0078 16.9844 71.5547 16.4062C71.1094 15.8281 70.7656 15.1484 70.5234 14.3672C70.2891 13.5859 70.1719 12.7344 70.1719 11.8125ZM74.1211 11.5664V11.8125C74.1211 12.2891 74.1641 12.7305 74.25 13.1367C74.3438 13.543 74.4844 13.9023 74.6719 14.2148C74.8594 14.5195 75.0898 14.7578 75.3633 14.9297C75.6445 15.1016 75.9727 15.1875 76.3477 15.1875C76.918 15.1875 77.3789 15.0664 77.7305 14.8242C78.082 14.582 78.3359 14.2383 78.4922 13.793C78.6484 13.3477 78.7148 12.8242 78.6914 12.2227V11.2969C78.707 10.7812 78.6719 10.3281 78.5859 9.9375C78.5 9.53906 78.3633 9.20703 78.1758 8.94141C77.9961 8.67578 77.7539 8.47656 77.4492 8.34375C77.1523 8.20312 76.793 8.13281 76.3711 8.13281C76.0039 8.13281 75.6797 8.21875 75.3984 8.39062C75.1172 8.5625 74.8828 8.80469 74.6953 9.11719C74.5078 9.42188 74.3633 9.78516 74.2617 10.207C74.168 10.6211 74.1211 11.0742 74.1211 11.5664Z" fill="#777777"/>
<path d="M94.3477 12.2227H98.4492C98.3945 13.4102 98.0742 14.457 97.4883 15.3633C96.9023 16.2695 96.0898 16.9766 95.0508 17.4844C94.0195 17.9844 92.8008 18.2344 91.3945 18.2344C90.2539 18.2344 89.2344 18.043 88.3359 17.6602C87.4453 17.2773 86.6875 16.7266 86.0625 16.0078C85.4453 15.2891 84.9727 14.418 84.6445 13.3945C84.3242 12.3711 84.1641 11.2188 84.1641 9.9375V9.01172C84.1641 7.73047 84.332 6.57812 84.668 5.55469C85.0117 4.52344 85.4961 3.64844 86.1211 2.92969C86.7539 2.20312 87.5117 1.64844 88.3945 1.26562C89.2773 0.882812 90.2578 0.691406 91.3359 0.691406C92.8203 0.691406 94.0742 0.957031 95.0977 1.48828C96.1211 2.01953 96.9141 2.75 97.4766 3.67969C98.0391 4.60156 98.3711 5.65234 98.4727 6.83203H94.3711C94.3555 6.19141 94.2461 5.65625 94.043 5.22656C93.8398 4.78906 93.5195 4.46094 93.082 4.24219C92.6445 4.02344 92.0625 3.91406 91.3359 3.91406C90.8281 3.91406 90.3867 4.00781 90.0117 4.19531C89.6367 4.38281 89.3242 4.67969 89.0742 5.08594C88.8242 5.49219 88.6367 6.01953 88.5117 6.66797C88.3945 7.30859 88.3359 8.08203 88.3359 8.98828V9.9375C88.3359 10.8438 88.3906 11.6172 88.5 12.2578C88.6094 12.8984 88.7852 13.4219 89.0273 13.8281C89.2695 14.2344 89.582 14.5352 89.9648 14.7305C90.3555 14.918 90.832 15.0117 91.3945 15.0117C92.0195 15.0117 92.5469 14.9141 92.9766 14.7188C93.4062 14.5156 93.7383 14.2109 93.9727 13.8047C94.207 13.3906 94.332 12.8633 94.3477 12.2227ZM99.7148 11.7891V11.543C99.7148 10.6133 99.8477 9.75781 100.113 8.97656C100.379 8.1875 100.77 7.50391 101.285 6.92578C101.801 6.34766 102.438 5.89844 103.195 5.57812C103.953 5.25 104.828 5.08594 105.82 5.08594C106.82 5.08594 107.699 5.25 108.457 5.57812C109.223 5.89844 109.863 6.34766 110.379 6.92578C110.895 7.50391 111.285 8.1875 111.551 8.97656C111.816 9.75781 111.949 10.6133 111.949 11.543V11.7891C111.949 12.7109 111.816 13.5664 111.551 14.3555C111.285 15.1367 110.895 15.8203 110.379 16.4062C109.863 16.9844 109.227 17.4336 108.469 17.7539C107.711 18.0742 106.836 18.2344 105.844 18.2344C104.852 18.2344 103.973 18.0742 103.207 17.7539C102.441 17.4336 101.801 16.9844 101.285 16.4062C100.77 15.8203 100.379 15.1367 100.113 14.3555C99.8477 13.5664 99.7148 12.7109 99.7148 11.7891ZM103.664 11.543V11.7891C103.664 12.2656 103.699 12.7109 103.77 13.125C103.84 13.5391 103.957 13.9023 104.121 14.2148C104.285 14.5195 104.508 14.7578 104.789 14.9297C105.07 15.1016 105.422 15.1875 105.844 15.1875C106.258 15.1875 106.602 15.1016 106.875 14.9297C107.156 14.7578 107.379 14.5195 107.543 14.2148C107.707 13.9023 107.824 13.5391 107.895 13.125C107.965 12.7109 108 12.2656 108 11.7891V11.543C108 11.082 107.965 10.6484 107.895 10.2422C107.824 9.82812 107.707 9.46484 107.543 9.15234C107.379 8.83203 107.156 8.58203 106.875 8.40234C106.594 8.22266 106.242 8.13281 105.82 8.13281C105.406 8.13281 105.059 8.22266 104.777 8.40234C104.504 8.58203 104.285 8.83203 104.121 9.15234C103.957 9.46484 103.84 9.82812 103.77 10.2422C103.699 10.6484 103.664 11.082 103.664 11.543Z" fill="white"/>
</svg>
